<svg height="512pt" viewBox="0 -38 512 512" width="512pt" xmlns="http://www.w3.org/2000/svg"><path d="m276 378c0 11.046875-8.953125 20-20 20s-20-8.953125-20-20c0-98.148438-79.851562-178-178-178-11.046875 0-20-8.953125-20-20s8.953125-20 20-20c120.207031 0 218 97.792969 218 218zm-218-138c-11.046875 0-20 8.953125-20 20s8.953125 20 20 20c54.035156 0 98 43.964844 98 98 0 11.046875 8.953125 20 20 20s20-8.953125 20-20c0-76.09375-61.90625-138-138-138zm58 138c0 31.980469-26.019531 58-58 58s-58-26.019531-58-58 26.019531-58 58-58 58 26.019531 58 58zm-40 0c0-9.925781-8.074219-18-18-18s-18 8.074219-18 18 8.074219 18 18 18 18-8.074219 18-18zm416-378h-434c-11.046875 0-20 8.953125-20 20v80c0 11.046875 8.953125 20 20 20s20-8.953125 20-20v-60h394v318h-136c-11.046875 0-20 8.953125-20 20s8.953125 20 20 20h156c11.046875 0 20-8.953125 20-20v-358c0-11.046875-8.953125-20-20-20zm0 0"/></svg>