<svg id="Capa_1" enable-background="new 0 0 512 512" height="512" viewBox="0 0 512 512" width="512" xmlns="http://www.w3.org/2000/svg"><g><path d="m241 0h30v91h-30z"/><path d="m59.13 105.999h30.005v90.002h-30.005z" transform="matrix(.5 -.866 .866 .5 -93.704 139.702)"/><path d="m392.867 135.998h90.002v30.005h-90.002z" transform="matrix(.866 -.5 .5 .866 -16.838 239.159)"/><path d="m135.998 29.131h30.005v90.002h-30.005z" transform="matrix(.866 -.5 .5 .866 -16.836 85.43)"/><path d="m315.999 59.13h90.002v30.005h-90.002z" transform="matrix(.5 -.866 .866 .5 116.325 349.724)"/><path d="m331 368.203c36.163-24.221 60-65.409 60-112.203 0-74.559-60.441-135-135-135s-135 60.441-135 135c0 46.794 23.837 87.982 60 112.203v52.797h150zm-30-67.203h-30v90h-30v-90h-30v-30h90z"/><path d="m181 466c0 24.853 20.147 46 45 46h60c24.853 0 45-21.147 45-46v-15h-150z"/></g></svg>