<svg xmlns="http://www.w3.org/2000/svg" width="70.607" height="85.4" viewBox="0 0 70.607 85.4">
  <g id="Fines" transform="translate(-215.4 -198.7)">
    <path id="Path_798" data-name="Path 798" d="M267.7,284h-5.9c-14.1,0-28.3-.1-42.4.1-2.9,0-4-.8-4-3.9q.15-38.85,0-77.7c0-2.9.9-3.8,3.7-3.8,16.9.1,33.9.1,50.8,0,2.5,0,3.6.8,3.6,3.4-.1,14.1,0,28.3,0,42.4,0,1.6-.7,2.4-2,3.5-3.8,3.1-8.2,4.3-12.9,5-3.5.5-5,2.6-4.2,6.2C256.3,268.8,259.5,277.5,267.7,284Zm-23.1-60.8a15.1,15.1,0,0,0-.4,30.2,15.1,15.1,0,1,0,.4-30.2ZM237.1,277c3.2,0,6.4-.1,9.5,0,1.9.1,2.7-.7,2.6-2.6-.1-3.1-.1-6.2,0-9.2,0-1.7-.5-2.7-2.3-2.6H227.6c-2,0-2.5,1-2.5,2.8.1,3,.1,6,0,8.9-.1,2.1.8,2.8,2.8,2.7C230.9,276.9,234,277,237.1,277Zm7.2-62.4H228.8c-1.6,0-3.6-.2-3.4,2.1.1.8,2.2,1.9,3.3,1.9,10.5.1,21.1.1,31.6.1,1.5,0,3.4,0,3.1-2.1-.1-.8-1.9-1.8-3-1.8C255.1,214.5,249.7,214.6,244.3,214.6Zm0-4.7h16.1c1.5,0,3.4,0,3.1-2.1-.1-.8-2-1.8-3.1-1.8-10.6-.1-21.3-.1-31.9-.1-1.5,0-3.4-.1-3.1,2.1.1.7,2,1.7,3.1,1.8C233.7,210,239,209.9,244.3,209.9Z"/>
    <path id="Path_803" data-name="Path 803" d="M245.9,244.8v-4.6c1,1.2,1.9,1.8,1.9,2.4a8.948,8.948,0,0,1-.9,2.6A6.893,6.893,0,0,0,245.9,244.8Z" fill="#fff"/>
    <text id="_" data-name="$" transform="translate(239.4 246.452)" font-size="21" font-family="SegoeUI, Segoe UI"><tspan x="0" y="0">$</tspan></text>
    <g id="Group_1047" data-name="Group 1047">
      <path id="Path_804" data-name="Path 804" d="M286,257.9a1.24,1.24,0,0,0-1.2-1.3,26.193,26.193,0,0,1-12-4.7,1.083,1.083,0,0,0-1.1,0,25.206,25.206,0,0,1-12,4.7,1.305,1.305,0,0,0-1.2,1.3c-.1,4.5.7,19.9,13.4,23.3a.854.854,0,0,0,.7,0C285.4,277.8,286.1,262.4,286,257.9Z"/>
    </g>
  </g>
</svg>
