<svg id="Capa_1" enable-background="new 0 0 512 512" height="512" viewBox="0 0 512 512" width="512" xmlns="http://www.w3.org/2000/svg"><g><path d="m256.596 294.333c-2.82.908-5.848.961-8.698.149-2.191-.623-10.848-3.672-19.517-14.714-14.488 21.601 2.671 49.232 27.619 49.232 18.196 0 33-14.804 33-33 0-12.537-2.872-23.016-6.866-31.191-7.996 23.088-23.258 28.791-25.538 29.524z"/><path d="m163.455 436.218h185.091c18.777 0 34.284-15.031 34.453-33.808.002-.343.001 10.152.001-228.41 0-20.294-13.506-37.486-32-43.078v-85.922c0-24.853-20.147-45-45-45h-100c-24.853 0-45 20.147-45 45v85.922c-18.494 5.592-32 22.784-32 43.078v228c0 19.272 15.791 34.218 34.455 34.218zm92.545-77.218c-34.633 0-62.827-28.093-62.999-62.685-.425-12.327 5.605-36.951 30.983-52.994 7.894-4.989 18.375-1.624 21.901 7.005 1.838 4.498 3.763 7.764 5.488 10.107 2.75-4.851 5.627-13.496 5.627-28.433 0-11.123 11.732-18.406 21.708-13.416 19.406 9.702 40.292 38.067 40.292 77.416 0 34.738-28.262 63-63 63zm-65-314c0-8.271 6.729-15 15-15h100c8.271 0 15 6.729 15 15v84h-50v-34h17c8.284 0 15-6.716 15-15s-6.716-15-15-15h-64c-8.284 0-15 6.716-15 15s6.716 15 15 15h17v34h-50z"/><path d="m145 466.218v30.782c0 8.284 6.716 15 15 15h192c8.284 0 15-6.716 15-15v-30.782z"/></g></svg>