<svg width="36" height="36" viewBox="0 0 36 36" fill="none" xmlns="http://www.w3.org/2000/svg">
<path d="M32.8498 28.1299L32.5098 27.8299C31.5452 26.9705 30.701 25.985 29.9998 24.8999C29.234 23.4024 28.7751 21.7671 28.6498 20.0899V15.1499C28.6564 12.5155 27.7008 9.96938 25.9625 7.98988C24.2243 6.01037 21.823 4.73376 19.2098 4.3999V3.1099C19.2098 2.75584 19.0692 2.41628 18.8188 2.16591C18.5684 1.91555 18.2289 1.7749 17.8748 1.7749C17.5207 1.7749 17.1812 1.91555 16.9308 2.16591C16.6805 2.41628 16.5398 2.75584 16.5398 3.1099V4.4199C13.9501 4.77783 11.5778 6.06216 9.86233 8.03501C8.14689 10.0079 7.20453 12.5355 7.2098 15.1499V20.0899C7.08456 21.7671 6.62558 23.4024 5.8598 24.8999C5.17069 25.9823 4.34 26.9676 3.3898 27.8299L3.0498 28.1299V30.9499H32.8498V28.1299Z" fill="white"/>
<path d="M15.3198 32C15.4075 32.6339 15.7216 33.2146 16.2041 33.635C16.6866 34.0553 17.3049 34.2869 17.9448 34.2869C18.5847 34.2869 19.203 34.0553 19.6855 33.635C20.168 33.2146 20.4821 32.6339 20.5698 32H15.3198Z" fill="white"/>
</svg>
